<svg width="70" height="63" viewBox="0 0 70 63" fill="none" xmlns="http://www.w3.org/2000/svg">
<path d="M35.0001 34.5857C36.8936 34.5857 38.4286 33.2042 38.4286 31.5C38.4286 29.7958 36.8936 28.4143 35.0001 28.4143C33.1065 28.4143 31.5715 29.7958 31.5715 31.5C31.5715 33.2042 33.1065 34.5857 35.0001 34.5857Z" fill="#61DAFB"/>
<path fill-rule="evenodd" clip-rule="evenodd" d="M18.8792 29.8764C18.1017 30.5081 17.8461 31.0588 17.8461 31.5C17.8461 31.9412 18.1017 32.4919 18.8792 33.1236C19.6561 33.7549 20.8506 34.3749 22.4327 34.9185C25.588 36.0028 30.031 36.6969 35.0001 36.6969C39.9692 36.6969 44.4121 36.0028 47.5675 34.9185C49.1495 34.3749 50.344 33.7549 51.121 33.1236C51.8985 32.4919 52.154 31.9412 52.154 31.5C52.154 31.0588 51.8985 30.5081 51.121 29.8764C50.344 29.2451 49.1495 28.6251 47.5675 28.0815C44.4121 26.9972 39.9692 26.3031 35.0001 26.3031C30.031 26.3031 25.588 26.9972 22.4327 28.0815C20.8506 28.6251 19.6561 29.2451 18.8792 29.8764ZM21.5502 25.978C25.0532 24.7743 29.8088 24.0531 35.0001 24.0531C40.1914 24.0531 44.9469 24.7743 48.45 25.978C50.1971 26.5784 51.6968 27.3206 52.7817 28.2021C53.8661 29.0831 54.6401 30.1954 54.6401 31.5C54.6401 32.8046 53.8661 33.9169 52.7817 34.7979C51.6968 35.6794 50.1971 36.4216 48.45 37.022C44.9469 38.2257 40.1914 38.9469 35.0001 38.9469C29.8088 38.9469 25.0532 38.2257 21.5502 37.022C19.803 36.4216 18.3033 35.6794 17.2184 34.7979C16.134 33.9169 15.36 32.8046 15.36 31.5C15.36 30.1954 16.134 29.0831 17.2184 28.2021C18.3033 27.3206 19.803 26.5784 21.5502 25.978Z" fill="#61DAFB"/>
<path fill-rule="evenodd" clip-rule="evenodd" d="M28.5119 18.1256C27.5166 17.8358 26.8554 17.9105 26.4256 18.1338C25.9958 18.3572 25.5934 18.8351 25.3745 19.7558C25.1557 20.6765 25.1564 21.9167 25.4241 23.4206C25.9581 26.4205 27.511 30.2289 29.9948 34.1008C32.4786 37.9726 35.3668 41.0872 37.9864 43.0034C39.2997 43.964 40.4927 44.5846 41.4881 44.8744C42.4834 45.1642 43.1446 45.0895 43.5744 44.8661C44.0042 44.6428 44.4067 44.1648 44.6255 43.2442C44.8443 42.3234 44.8437 41.0833 44.5759 39.5793C44.0419 36.5795 42.489 32.7711 40.0052 28.8992C37.5214 25.0273 34.6332 21.9128 32.0136 19.9966C30.7003 19.036 29.5073 18.4154 28.5119 18.1256ZM33.5808 18.2546C36.492 20.3841 39.5649 23.7315 42.1613 27.7789C44.7577 31.8263 46.4423 35.895 47.0357 39.2289C47.3318 40.8918 47.3674 42.4327 47.0616 43.7195C46.7557 45.0063 46.0727 46.1624 44.8226 46.812C43.5726 47.4615 42.1186 47.4159 40.7274 47.0108C39.3363 46.6058 37.8714 45.8075 36.4193 44.7454C33.508 42.6158 30.4352 39.2685 27.8388 35.2211C25.2424 31.1737 23.5578 27.105 22.9643 23.7711C22.6683 22.1082 22.6326 20.5673 22.9384 19.2805C23.2443 17.9936 23.9273 16.8376 25.1774 16.188C26.4274 15.5385 27.8814 15.5841 29.2726 15.9892C30.6637 16.3942 32.1286 17.1924 33.5808 18.2546Z" fill="#61DAFB"/>
<path fill-rule="evenodd" clip-rule="evenodd" d="M44.6255 19.7558C44.4067 18.8351 44.0042 18.3572 43.5744 18.1338C43.1446 17.9105 42.4834 17.8358 41.4881 18.1256C40.4927 18.4154 39.2997 19.036 37.9864 19.9966C35.3668 21.9128 32.4786 25.0273 29.9948 28.8992C27.511 32.7711 25.9581 36.5795 25.4241 39.5793C25.1564 41.0833 25.1557 42.3234 25.3745 43.2442C25.5933 44.1648 25.9958 44.6428 26.4256 44.8661C26.8554 45.0895 27.5166 45.1642 28.5119 44.8744C29.5073 44.5846 30.7003 43.964 32.0136 43.0033C34.6332 41.0872 37.5214 37.9726 40.0052 34.1008C42.489 30.2289 44.0419 26.4205 44.5759 23.4206C44.8436 21.9167 44.8443 20.6765 44.6255 19.7558ZM47.0357 23.7711C46.4423 27.105 44.7576 31.1737 42.1613 35.2211C39.5649 39.2685 36.492 42.6158 33.5807 44.7454C32.1286 45.8075 30.6637 46.6058 29.2726 47.0108C27.8814 47.4159 26.4274 47.4615 25.1774 46.812C23.9273 46.1624 23.2443 45.0063 22.9384 43.7195C22.6326 42.4327 22.6682 40.8918 22.9643 39.2289C23.5578 35.895 25.2424 31.8263 27.8388 27.7789C30.4352 23.7315 33.508 20.3841 36.4193 18.2546C37.8714 17.1924 39.3363 16.3942 40.7274 15.9892C42.1186 15.5841 43.5726 15.5385 44.8226 16.188C46.0727 16.8376 46.7557 17.9936 47.0616 19.2805C47.3674 20.5673 47.3318 22.1082 47.0357 23.7711Z" fill="#61DAFB"/>
</svg>
