<svg width="70" height="63" viewBox="0 0 70 63" fill="none" xmlns="http://www.w3.org/2000/svg">
<path d="M24.7317 26.4738H32.0665V26.996H25.404V30.9259H31.6692V31.4481H25.404V35.7628H32.1429V36.285H24.7317V26.4738ZM32.7236 26.4738H33.5029L36.9564 30.7885L40.4862 26.4738L45.2874 20.9932L37.3995 31.242L41.4642 36.285H40.6543L36.9564 31.6954L33.2431 36.285H32.4485L36.5438 31.242L32.7236 26.4738ZM41.7545 26.996V26.4738H50.1132V26.996H46.2624V36.285H45.59V26.996H41.7545Z" fill="black"/>
<path d="M15.5555 26.4738H16.396L27.9852 42.0068L23.196 36.285L16.2585 27.2158L16.2279 36.285H15.5555V26.4738Z" fill="black"/>
<path d="M50.0454 35.6052C50.1844 35.6052 50.2858 35.5099 50.2858 35.3867C50.2858 35.2635 50.1844 35.1682 50.0454 35.1682C49.9081 35.1682 49.8051 35.2635 49.8051 35.3867C49.8051 35.5099 49.9081 35.6052 50.0454 35.6052ZM50.7061 35.0303C50.7061 35.394 50.9988 35.6316 51.4257 35.6316C51.8803 35.6316 52.155 35.3867 52.155 34.9614V33.4639H51.7887V34.9599C51.7887 35.196 51.6562 35.3222 51.4224 35.3222C51.2131 35.3222 51.0708 35.2048 51.0659 35.0303H50.7061ZM52.6342 35.0112C52.6603 35.3896 53.0119 35.6316 53.5352 35.6316C54.0945 35.6316 54.4445 35.3779 54.4445 34.9731C54.4445 34.6548 54.245 34.4789 53.7609 34.3777L53.5009 34.3205C53.1934 34.2559 53.0692 34.1694 53.0692 34.0183C53.0692 33.8277 53.2621 33.703 53.5516 33.703C53.8263 33.703 54.016 33.8247 54.0504 34.0198H54.4069C54.3856 33.6634 54.0356 33.4126 53.5565 33.4126C53.0414 33.4126 52.6979 33.6634 52.6979 34.0403C52.6979 34.3513 52.8925 34.536 53.3194 34.6255L53.6235 34.6915C53.9359 34.7575 54.0733 34.8543 54.0733 35.0156C54.0733 35.2034 53.8574 35.3398 53.563 35.3398C53.2474 35.3398 53.0283 35.2122 52.9972 35.0112H52.6342Z" fill="black"/>
</svg>
