<svg width="70" height="63" viewBox="0 0 70 63" fill="none" xmlns="http://www.w3.org/2000/svg">
<path d="M54.4444 14H15.5555V49H54.4444V14Z" fill="#F7DF1E"/>
<path d="M41.679 41.3439C42.4623 42.495 43.4815 43.3411 45.2839 43.3411C46.7981 43.3411 47.7654 42.66 47.7654 41.7189C47.7654 40.5911 46.7716 40.1917 45.1049 39.5356L44.1913 39.1828C41.5543 38.1717 39.8025 36.905 39.8025 34.2272C39.8025 31.7606 41.8907 29.8828 45.1543 29.8828C47.4778 29.8828 49.1481 30.6106 50.3518 32.5161L47.5062 34.1606C46.8796 33.1495 46.2037 32.7511 45.1543 32.7511C44.0839 32.7511 43.4055 33.3622 43.4055 34.1606C43.4055 35.1472 44.0846 35.5467 45.6525 36.1578L46.566 36.51C49.671 37.7083 51.4241 38.93 51.4241 41.6767C51.4241 44.6378 48.8395 46.26 45.3685 46.26C41.9747 46.26 39.7821 44.8045 38.7092 42.8967L41.679 41.3439ZM28.7697 41.6289C29.3438 42.5456 29.866 43.3206 31.1216 43.3206C32.3222 43.3206 33.0796 42.8978 33.0796 41.2539V30.0706H36.7339V41.2983C36.7339 44.7039 34.5154 46.2539 31.2771 46.2539C28.3512 46.2539 26.6568 44.8911 25.795 43.2497L28.7697 41.6289Z" fill="black"/>
</svg>
